<?xml version="1.0" encoding="UTF-8" standalone="no"?>
<svg
   height="124"
   width="124"
   fill="#000000"
   version="1.1"
   x="0px"
   y="0px"
   viewBox="0 0 41.333333 41.333333"
   enable-background="new 0 0 100 100"
   xml:space="preserve"
   id="svg65"
   sodipodi:docname="icon.svg"
   inkscape:version="1.1.1 (c3084ef, 2021-09-22)"
   xmlns:inkscape="http://www.inkscape.org/namespaces/inkscape"
   xmlns:sodipodi="http://sodipodi.sourceforge.net/DTD/sodipodi-0.dtd"
   xmlns="http://www.w3.org/2000/svg"
   xmlns:svg="http://www.w3.org/2000/svg"><defs
     id="defs69" /><sodipodi:namedview
     id="namedview67"
     pagecolor="#505050"
     bordercolor="#eeeeee"
     borderopacity="1"
     inkscape:pageshadow="0"
     inkscape:pageopacity="0"
     inkscape:pagecheckerboard="0"
     showgrid="false"
     lock-margins="false"
     fit-margin-top="8"
     fit-margin-left="8"
     fit-margin-right="8"
     fit-margin-bottom="8"
     inkscape:zoom="1.2754554"
     inkscape:cx="-24.69706"
     inkscape:cy="97.220174"
     inkscape:window-width="1280"
     inkscape:window-height="772"
     inkscape:window-x="0"
     inkscape:window-y="1"
     inkscape:window-maximized="0"
     inkscape:current-layer="g63" /><g
     id="g63"
     transform="translate(5.7288458,31.154242)"><path
       id="path61"
       style="fill:#000000;fill-opacity:1;stroke:none;stroke-width:0.165591;stroke-miterlimit:4;stroke-dasharray:none;stroke-opacity:1;image-rendering:auto"
       d="m 17.536011,-24.730999 c -4.167625,-0.03092 -8.2855168,1.905987 -10.9396097,5.115111 -2.5465826,3.009935 -3.7419641,7.110245 -3.1923412,11.0163184 0.4944726,3.8050517 2.6076537,7.3645791 5.7250153,9.6046281 0.3079294,0.2342803 0.6307945,0.4470853 0.9527416,0.661349 C 9.0228229,1.9974413 7.8581126,2.0273504 6.8210141,1.5989175 4.9525985,0.88995465 3.5435848,-0.65539715 1.6256603,-1.279831 c -1.0740248,-0.3260963 -2.33252384,-0.3192502 -3.3035436,0.28652765 -0.5243207,0.4541963 -0.00891,1.419333 0.6581484,1.2605342 0.90047346,-0.4056109 1.96299388,-0.3219774 2.8312886,0.1305362 1.8431569,0.96840525 3.436646,2.50284015 5.5398984,2.90632805 1.5138898,0.3081725 3.0935799,-0.05817 4.4524709,-0.7477227 4.014906,1.7904903 8.866004,1.5718562 12.682184,-0.6210229 3.520943,-1.96568715 6.1489,-5.4763416 6.963944,-9.4337521 0.869126,-3.9615664 -0.05933,-8.2797714 -2.522326,-11.5081874 -2.238302,-3.012065 -5.698807,-5.090451 -9.425065,-5.585062 -0.651335,-0.09171 -1.308809,-0.136879 -1.966649,-0.139342 z m 0.476088,1.499156 c 0.260299,0.01867 0.571657,0.0287 0.802433,0.06501 -1.437985,1.149501 -2.813035,2.380628 -4.073517,3.723554 -0.663157,-0.943116 -1.261831,-1.931839 -1.787818,-2.957792 1.570013,-0.587673 3.342272,-0.907048 5.058902,-0.830766 z m 2.998403,0.477117 c 1.333452,0.380624 2.654477,1.01597 3.83457,1.823756 0.371258,0.139579 0.08349,0.279806 -0.140598,0.418475 -2.207693,1.518631 -4.25103,3.278954 -6.064516,5.252431 -1.080383,-0.900685 -2.077154,-1.901716 -2.977295,-2.982411 1.566757,-1.686024 3.299517,-3.218818 5.169117,-4.560913 0.05956,0.01626 0.119155,0.03241 0.17872,0.04867 z m -9.23474,1.323783 c 2.325788,4.457773 6.08623,8.164355 10.627279,10.339086 2.435538,1.1759554 5.098877,1.9416534 7.77711,2.2106234 -0.21551,1.599492 -0.708644,3.1012012 -1.475412,4.5337792 -0.09023,0.1951273 -0.453415,-0.00143 -0.665093,1.475e-4 -5.651264,-0.9515685 -10.954961,-3.6672937 -15.01031,-7.7156591 -2.012816,-2.002437 -3.7425404,-4.324641 -5.0735806,-6.852231 1.0385485,-1.151997 2.2696976,-2.139913 3.6458556,-2.858431 0.05804,0.114229 0.1161,0.228463 0.17415,0.342693 z m 14.7218,1.890617 c 0.886805,0.901124 1.657967,1.918152 2.263775,3.028623 -1.849217,1.281843 -3.578744,2.736457 -5.159526,4.337958 -1.326339,-0.600394 -2.590671,-1.335242 -3.780494,-2.17356 1.916783,-2.060091 4.096106,-3.897682 6.447849,-5.413525 0.07613,0.07349 0.152264,0.147004 0.228396,0.220504 z M 6.9918399,-17.5659 c 1.362894,2.387113 3.0226531,4.61262 4.9834851,6.543737 4.077568,4.0681444 9.375479,6.8908985 15.031224,7.987564 0.255018,0.048981 0.508956,0.1032267 0.764979,0.1463874 -1.116385,1.4589747 -2.517577,2.71104225 -4.13349,3.59209405 -2.473979,-0.6935185 -4.901777,-1.6854049 -7.130309,-2.91714425 -4.585484,-2.5387559 -8.5968688,-6.2090608 -11.5297784,-10.5784792 0.3062598,-1.656589 0.9573503,-3.307515 1.934249,-4.761758 0.044358,-0.04763 0.042492,-0.128526 0.079639,-0.01241 z m 22.4108061,2.423803 c 0.582169,1.524875 0.882257,3.179074 0.878253,4.784977 -1.770442,-0.203967 -3.5147,-0.622123 -5.194388,-1.215477 1.34276,-1.292958 2.784388,-2.534136 4.316134,-3.569496 z m -24.4024511,4.914613 c 0.8222115,1.0531494 1.6804948,2.0809284 2.6119144,3.0401404 -0.3335827,1.1834212 -0.5984463,2.3850341 -0.8225,3.5938612 -1.179066,-1.855258 -1.8964227,-4.0536812 -2.0011562,-6.2119812 0.014409,-0.175866 -0.089436,-0.7633834 0.04212,-0.6424974 0.056532,0.07349 0.1130851,0.146985 0.1696251,0.220478 z m 4.232086,4.6077976 c 0.7732941,0.68564 1.5590581,1.3580542 2.3828601,1.9826225 -0.254367,1.3804044 -0.416514,2.77666075 -0.514897,4.17669045 -1.1216998,-0.6888413 -2.1673833,-1.5128863 -3.0496215,-2.49291915 0.1818862,-1.3500149 0.4420403,-2.6990533 0.7869016,-4.0292668 0.131588,0.120955 0.2631715,0.241915 0.3947568,0.362873 z m 3.7855511,2.9971508 c 1.100417,0.7374136 2.23534,1.4236681 3.404782,2.04640105 -0.01663,0.9352888 0.002,1.87111965 0.04983,2.80515785 -1.342379,-0.1265285 -2.670034,-0.4435611 -3.914598,-0.9650154 0.07206,-1.32428235 0.191859,-2.6202685 0.40417,-3.924629 l 0.04103,0.028004 z m 4.980508,2.82972775 c 1.162982,0.5231411 2.347065,1.00076865 3.552428,1.41708485 -1.16217,0.3577763 -2.366744,0.591616 -3.583333,0.6382651 -0.03691,-0.7049027 -0.05455,-1.38534915 -0.054,-2.09455885 l 0.04509,0.020877 z" /><text
       xml:space="preserve"
       style="font-style:normal;font-weight:normal;font-size:13.3333px;line-height:1.25;font-family:sans-serif;fill:#000000;fill-opacity:1;stroke:none;stroke-width:0.333333"
       x="4.9648085"
       y="80.471268"
       id="text10433"><tspan
         sodipodi:role="line"
         id="tspan10431"
         style="stroke-width:0.333333"
         x="4.9648085"
         y="80.471268"></tspan></text><text
       xml:space="preserve"
       style="font-style:normal;font-weight:normal;font-size:13.3333px;line-height:1.25;font-family:sans-serif;fill:#000000;fill-opacity:1;stroke:none;stroke-width:0.333333"
       x="-7.8609462"
       y="77.781998"
       id="text13153"><tspan
         sodipodi:role="line"
         id="tspan13151"
         style="stroke-width:0.333333"
         x="-7.8609462"
         y="77.781998" /></text><text
       xml:space="preserve"
       style="font-style:normal;font-weight:normal;font-size:13.3333px;line-height:1.25;font-family:sans-serif;fill:#000000;fill-opacity:1;stroke:none;stroke-width:0.333333"
       x="18.516191"
       y="82.793831"
       id="text17653"><tspan
         sodipodi:role="line"
         id="tspan17651"
         style="stroke-width:0.333333"
         x="18.516191"
         y="82.793831" /></text></g></svg>
