<?xml version="1.0" encoding="UTF-8" standalone="no"?>
<svg
   height="138.34663"
   width="275.52161"
   fill="#000000"
   version="1.1"
   x="0px"
   y="0px"
   viewBox="0 0 91.840535 46.115544"
   enable-background="new 0 0 100 100"
   xml:space="preserve"
   id="svg65"
   sodipodi:docname="logo.svg"
   inkscape:version="1.1.1 (c3084ef, 2021-09-22)"
   xmlns:inkscape="http://www.inkscape.org/namespaces/inkscape"
   xmlns:sodipodi="http://sodipodi.sourceforge.net/DTD/sodipodi-0.dtd"
   xmlns="http://www.w3.org/2000/svg"
   xmlns:svg="http://www.w3.org/2000/svg"><defs
     id="defs69" /><sodipodi:namedview
     id="namedview67"
     pagecolor="#505050"
     bordercolor="#eeeeee"
     borderopacity="1"
     inkscape:pageshadow="0"
     inkscape:pageopacity="0"
     inkscape:pagecheckerboard="0"
     showgrid="false"
     lock-margins="false"
     fit-margin-top="8"
     fit-margin-left="8"
     fit-margin-right="8"
     fit-margin-bottom="8"
     inkscape:zoom="1.5492592"
     inkscape:cx="130.70763"
     inkscape:cy="54.219462"
     inkscape:window-width="1280"
     inkscape:window-height="772"
     inkscape:window-x="1"
     inkscape:window-y="1"
     inkscape:window-maximized="0"
     inkscape:current-layer="text4563" /><g
     id="g63"
     transform="translate(47.283911,43.44888)"><path
       id="path61"
       style="fill:#000000;fill-opacity:1;stroke:none;stroke-width:0.165591;stroke-miterlimit:4;stroke-dasharray:none;stroke-opacity:1;image-rendering:auto"
       d="m 15.358855,-28.487211 c -4.167625,-0.03092 -8.2855188,1.905987 -10.9396117,5.115111 -2.5465826,3.009935 -3.74196405,7.110245 -3.1923412,11.016318 0.4944726,3.8050517 2.6076537,7.3645791 5.7250153,9.6046281 0.3079294,0.2342803 0.6307945,0.4470853 0.9527418,0.661349 -1.0589943,0.3310338 -2.2237046,0.3609429 -3.2608031,-0.06749 -1.8684156,-0.7089628 -3.2774293,-2.2543146 -5.19535363,-2.8787485 -1.07402487,-0.3260963 -2.33252397,-0.3192502 -3.30354377,0.2865277 -0.5243207,0.4541963 -0.00891,1.419333 0.6581484,1.2605342 0.9004735,-0.4056109 1.962994,-0.3219774 2.83128874,0.1305362 1.84315676,0.9684052 3.43664586,2.50284017 5.53989826,2.90632807 1.5138898,0.3081725 3.0935797,-0.05817 4.4524717,-0.74772277 4.0149072,1.79049035 8.8660052,1.57185629 12.6821852,-0.6210229 3.520943,-1.9656871 6.1489,-5.4763416 6.963944,-9.4337521 0.869126,-3.961566 -0.05933,-8.279771 -2.522326,-11.508187 -2.238302,-3.012065 -5.698807,-5.090451 -9.425065,-5.585062 -0.651335,-0.09171 -1.308809,-0.136879 -1.966649,-0.139342 z m 0.476088,1.499156 c 0.260299,0.01867 0.571657,0.0287 0.802433,0.06501 -1.437985,1.149501 -2.813035,2.380628 -4.073517,3.723554 -0.663157,-0.943116 -1.261831,-1.931839 -1.787818,-2.957792 1.570013,-0.587673 3.342272,-0.907048 5.058902,-0.830766 z m 2.998403,0.477117 c 1.333452,0.380624 2.654477,1.01597 3.83457,1.823756 0.371258,0.139579 0.08349,0.279806 -0.140598,0.418475 -2.207693,1.518631 -4.25103,3.278954 -6.064516,5.252431 -1.080383,-0.900685 -2.077154,-1.901716 -2.977295,-2.982411 1.566757,-1.686024 3.299517,-3.218818 5.169117,-4.560913 0.05956,0.01626 0.119155,0.03241 0.17872,0.04867 z m -9.2347413,1.323783 c 2.3257893,4.457773 6.0862313,8.164355 10.6272803,10.339086 2.435538,1.175955 5.098877,1.941653 7.77711,2.210623 -0.21551,1.599492 -0.708644,3.1012012 -1.475412,4.5337792 -0.09023,0.1951273 -0.453415,-0.00143 -0.665093,1.475e-4 -5.651264,-0.9515685 -10.954961,-3.6672937 -15.01031,-7.7156587 -2.0128179,-2.002437 -3.7425424,-4.324641 -5.0735826,-6.852231 1.0385485,-1.151997 2.269698,-2.139913 3.6458559,-2.858431 0.058042,0.114229 0.1161005,0.228463 0.1741505,0.342693 z m 14.7218013,1.890617 c 0.886805,0.901124 1.657967,1.918152 2.263775,3.028623 -1.849217,1.281843 -3.578744,2.736457 -5.159526,4.337958 -1.326339,-0.600394 -2.590671,-1.335242 -3.780494,-2.17356 1.916783,-2.060091 4.096106,-3.897682 6.447849,-5.413525 0.07613,0.07349 0.152264,0.147004 0.228396,0.220504 z m -19.5057241,1.974426 c 1.362894,2.387113 3.0226536,4.61262 4.9834866,6.543737 4.0775685,4.068144 9.3754795,6.8908981 15.0312245,7.9875636 0.255018,0.048981 0.508956,0.1032267 0.764979,0.1463874 -1.116385,1.4589747 -2.517577,2.7110423 -4.13349,3.5920941 C 18.986903,-3.7458484 16.559105,-4.7377348 14.330573,-5.9694742 9.7450882,-8.5082301 5.7337022,-12.178535 2.8007926,-16.547953 c 0.3062598,-1.656589 0.9573503,-3.307515 1.934249,-4.761758 0.044358,-0.04763 0.042492,-0.128526 0.079639,-0.01241 z m 22.4108081,2.423803 c 0.582169,1.524875 0.882257,3.179074 0.878253,4.784977 -1.770442,-0.203967 -3.5147,-0.622123 -5.194388,-1.215477 1.34276,-1.292958 2.784388,-2.534136 4.316134,-3.569496 z m -24.4024531,4.914613 c 0.8222115,1.053149 1.6804948,2.080928 2.6119144,3.04014 -0.3335827,1.1834212 -0.5984463,2.3850341 -0.8225,3.5938612 -1.179066,-1.855258 -1.8964227,-4.0536812 -2.0011562,-6.2119812 0.014409,-0.175866 -0.089436,-0.763383 0.04212,-0.642497 0.056532,0.07349 0.1130851,0.146985 0.1696251,0.220478 z m 4.232086,4.6077972 c 0.7732944,0.68564 1.5590577,1.3580542 2.3828612,1.9826225 -0.2543677,1.3804044 -0.4165148,2.7766608 -0.5148978,4.1766905 -1.1217001,-0.6888413 -2.1673836,-1.5128863 -3.0496218,-2.4929192 0.1818862,-1.3500149 0.4420403,-2.6990533 0.7869016,-4.0292668 0.131588,0.120955 0.2631715,0.241915 0.3947568,0.362873 z m 3.7855531,2.9971508 c 1.100417,0.7374136 2.23534,1.4236681 3.404782,2.0464011 -0.01663,0.9352888 0.002,1.8711196 0.04983,2.8051578 -1.342379,-0.1265285 -2.670034,-0.4435611 -3.914598,-0.9650154 0.07206,-1.3242823 0.191859,-2.6202685 0.40417,-3.924629 l 0.04103,0.028004 z m 4.980508,2.8297278 c 1.162982,0.5231411 2.347065,1.0007686 3.552428,1.4170848 -1.16217,0.3577763 -2.366744,0.591616 -3.583333,0.6382651 -0.03691,-0.7049027 -0.05455,-1.3853491 -0.054,-2.0945588 l 0.04509,0.020877 z" /><g
       aria-label="W   l"
       id="text4563"
       style="font-size:55.1111px;line-height:1.25;stroke-width:0.333333"><path
         d="m 1.1249682,-38.302214 h -2.1493329 l -9.4791093,35.9875478 -9.754664,-35.4364368 h -2.865777 l -10.305776,35.4915479 -8.872887,-36.0426589 h -2.314666 l 9.644442,38.02665851 h 2.810666 l 10.415998,-35.43643651 9.809776,35.43643651 h 2.7004435 z"
         style="font-family:Aileron;-inkscape-font-specification:Aileron"
         id="path21504" /><path
         d="m 38.638404,-40.782213 h -2.094222 v 33.5075479 c 0,1.9288885 0,2.9208883 0.05511,4.0231102 C 36.709515,-0.71644429 38.032182,0 39.850848,0 c 0.661333,0 1.377777,0 2.039111,-0.16533329 V -1.8186663 c -2.369778,0.2755555 -3.086222,-0.1653333 -3.196444,-1.9839995 -0.05511,-0.8266665 -0.05511,-1.8737774 -0.05511,-3.5271104 z"
         style="font-family:Aileron;-inkscape-font-specification:Aileron"
         id="path21506" /></g><text
       xml:space="preserve"
       style="font-style:normal;font-weight:normal;font-size:13.3333px;line-height:1.25;font-family:sans-serif;fill:#000000;fill-opacity:1;stroke:none;stroke-width:0.333333"
       x="4.9648085"
       y="80.471268"
       id="text10433"><tspan
         sodipodi:role="line"
         id="tspan10431"
         style="stroke-width:0.333333"
         x="4.9648085"
         y="80.471268"></tspan></text><text
       xml:space="preserve"
       style="font-style:normal;font-weight:normal;font-size:13.3333px;line-height:1.25;font-family:sans-serif;fill:#000000;fill-opacity:1;stroke:none;stroke-width:0.333333"
       x="-7.8609462"
       y="77.781998"
       id="text13153"><tspan
         sodipodi:role="line"
         id="tspan13151"
         style="stroke-width:0.333333"
         x="-7.8609462"
         y="77.781998" /></text><text
       xml:space="preserve"
       style="font-style:normal;font-weight:normal;font-size:13.3333px;line-height:1.25;font-family:sans-serif;fill:#000000;fill-opacity:1;stroke:none;stroke-width:0.333333"
       x="18.516191"
       y="82.793831"
       id="text17653"><tspan
         sodipodi:role="line"
         id="tspan17651"
         style="stroke-width:0.333333"
         x="18.516191"
         y="82.793831" /></text></g></svg>
